<?xml version="1.0" encoding="UTF-8" standalone="no"?>
<!DOCTYPE svg PUBLIC "-//W3C//DTD SVG 1.1//EN" "http://www.w3.org/Graphics/SVG/1.1/DTD/svg11.dtd">
<svg xmlns="http://www.w3.org/2000/svg" xmlns:xlink="http://www.w3.org/1999/xlink" width="456" zoomAndPan="magnify" viewBox="0 0 342 341.999987" height="456" preserveAspectRatio="xMidYMid meet" version="1.0"><defs><clipPath id="d0ab630402"><path d="M 48 110 L 261 110 L 261 323 L 48 323 Z M 48 110 " clip-rule="nonzero"/></clipPath><clipPath id="101475cbf0"><path d="M 53.332031 105.359375 L 265.34375 115.378906 L 255.324219 327.390625 L 43.3125 317.371094 Z M 53.332031 105.359375 " clip-rule="nonzero"/></clipPath><clipPath id="aad431d3fb"><path d="M 53.332031 105.359375 L 265.34375 115.378906 L 255.324219 327.390625 L 43.3125 317.371094 Z M 53.332031 105.359375 " clip-rule="nonzero"/></clipPath><clipPath id="a8da15cb8c"><path d="M 124 152 L 222 152 L 222 254 L 124 254 Z M 124 152 " clip-rule="nonzero"/></clipPath><clipPath id="e09748477f"><path d="M 53.332031 105.359375 L 265.34375 115.378906 L 255.324219 327.390625 L 43.3125 317.371094 Z M 53.332031 105.359375 " clip-rule="nonzero"/></clipPath><clipPath id="710f1a73ae"><path d="M 53.332031 105.359375 L 265.34375 115.378906 L 255.324219 327.390625 L 43.3125 317.371094 Z M 53.332031 105.359375 " clip-rule="nonzero"/></clipPath><clipPath id="82ab73c3e1"><path d="M 85 225 L 141 225 L 141 281 L 85 281 Z M 85 225 " clip-rule="nonzero"/></clipPath><clipPath id="158416ce19"><path d="M 53.332031 105.359375 L 265.34375 115.378906 L 255.324219 327.390625 L 43.3125 317.371094 Z M 53.332031 105.359375 " clip-rule="nonzero"/></clipPath><clipPath id="7a62eeb2b9"><path d="M 53.332031 105.359375 L 265.34375 115.378906 L 255.324219 327.390625 L 43.3125 317.371094 Z M 53.332031 105.359375 " clip-rule="nonzero"/></clipPath><clipPath id="235c0bea55"><path d="M 201 100 L 256 100 L 256 149 L 201 149 Z M 201 100 " clip-rule="nonzero"/></clipPath><clipPath id="b48c46c1ce"><path d="M 195.589844 43.105469 L 305.480469 34.183594 L 314.398438 144.074219 L 204.511719 152.992188 Z M 195.589844 43.105469 " clip-rule="nonzero"/></clipPath><clipPath id="41afc8d99d"><path d="M 195.589844 43.105469 L 305.480469 34.183594 L 314.398438 144.074219 L 204.511719 152.992188 Z M 195.589844 43.105469 " clip-rule="nonzero"/></clipPath><clipPath id="da2b0628ae"><path d="M 198 71 L 285 71 L 285 147 L 198 147 Z M 198 71 " clip-rule="nonzero"/></clipPath><clipPath id="c23933d1da"><path d="M 195.589844 43.105469 L 305.480469 34.183594 L 314.398438 144.074219 L 204.511719 152.992188 Z M 195.589844 43.105469 " clip-rule="nonzero"/></clipPath><clipPath id="7d9f1a6f72"><path d="M 195.589844 43.105469 L 305.480469 34.183594 L 314.398438 144.074219 L 204.511719 152.992188 Z M 195.589844 43.105469 " clip-rule="nonzero"/></clipPath><clipPath id="a4caabe7e1"><path d="M 196 42 L 314 42 L 314 145 L 196 145 Z M 196 42 " clip-rule="nonzero"/></clipPath><clipPath id="b8fdec0d28"><path d="M 195.589844 43.105469 L 305.480469 34.183594 L 314.398438 144.074219 L 204.511719 152.992188 Z M 195.589844 43.105469 " clip-rule="nonzero"/></clipPath><clipPath id="c08dc0579f"><path d="M 195.589844 43.105469 L 305.480469 34.183594 L 314.398438 144.074219 L 204.511719 152.992188 Z M 195.589844 43.105469 " clip-rule="nonzero"/></clipPath></defs><g clip-path="url(#d0ab630402)"><g clip-path="url(#101475cbf0)"><g clip-path="url(#aad431d3fb)"><path fill="#d9d9d9" d="M 214.390625 277.890625 C 215.726562 276.011719 216.679688 273.789062 217.242188 271.242188 C 217.996094 267.828125 218.035156 263.832031 217.359375 259.363281 C 216.085938 250.933594 212.238281 240.746094 206.242188 229.898438 C 205.429688 228.433594 203.585938 227.902344 202.121094 228.710938 C 200.65625 229.523438 200.125 231.367188 200.933594 232.832031 C 206.589844 243.054688 210.195312 252.542969 211.359375 260.269531 C 212.128906 265.347656 212.191406 272.171875 208.140625 275.859375 C 203.011719 280.523438 192.269531 279.207031 178.667969 272.246094 C 163.976562 264.726562 147.746094 251.636719 132.964844 235.390625 C 123.875 225.398438 115.796875 214.65625 109.597656 204.316406 C 102.886719 193.121094 98.472656 182.640625 96.832031 174.007812 C 95.816406 168.652344 95.429688 161.585938 99.058594 157.453125 C 99.453125 157.324219 99.824219 157.113281 100.148438 156.820312 C 100.441406 156.550781 100.667969 156.238281 100.832031 155.90625 C 107.769531 151.285156 122.296875 155.140625 139.367188 166.257812 C 140.769531 167.175781 142.648438 166.777344 143.5625 165.375 C 144.476562 163.96875 144.082031 162.09375 142.675781 161.179688 C 132.96875 154.851562 123.722656 150.589844 115.945312 148.847656 C 111.800781 147.921875 108.035156 147.695312 104.746094 148.171875 C 102.351562 148.519531 100.207031 149.238281 98.335938 150.320312 L 89.257812 140.34375 C 107.925781 124.359375 132.472656 115.167969 158.898438 116.417969 C 213.925781 119.019531 256.578125 165.902344 253.980469 220.929688 C 252.730469 247.355469 241.265625 270.929688 223.59375 288.003906 Z M 149.464844 316.011719 C 94.4375 313.410156 51.785156 266.523438 54.386719 211.496094 C 55.636719 185.070312 67.097656 161.5 84.773438 144.421875 L 93.789062 154.332031 C 90.191406 159.105469 89.179688 166.222656 90.875 175.140625 C 92.644531 184.46875 97.320312 195.636719 104.398438 207.4375 C 110.796875 218.109375 119.125 229.1875 128.480469 239.472656 C 143.738281 256.242188 160.578125 269.800781 175.902344 277.644531 C 183.53125 281.550781 190.429688 283.851562 196.398438 284.488281 C 197.050781 284.554688 197.6875 284.605469 198.3125 284.636719 C 202.933594 284.851562 206.835938 283.984375 209.96875 282.042969 L 219.109375 292.085938 C 200.441406 308.070312 175.894531 317.257812 149.464844 316.011719 Z M 260.035156 221.21875 C 260.710938 206.929688 258.566406 192.933594 253.664062 179.621094 C 248.925781 166.761719 241.832031 155.082031 232.570312 144.902344 C 223.308594 134.722656 212.351562 126.554688 199.996094 120.628906 C 187.203125 114.488281 173.472656 111.035156 159.183594 110.359375 C 144.898438 109.683594 130.902344 111.828125 117.589844 116.734375 C 105.675781 121.121094 94.777344 127.535156 85.144531 135.820312 L 75.046875 124.722656 C 73.917969 123.484375 72.003906 123.390625 70.761719 124.519531 C 69.523438 125.644531 69.433594 127.5625 70.5625 128.800781 L 80.65625 139.902344 C 71.5 148.710938 64.085938 158.957031 58.597656 170.402344 C 52.457031 183.191406 49.003906 196.921875 48.328125 211.210938 C 47.652344 225.5 49.796875 239.496094 54.703125 252.808594 C 59.4375 265.664062 66.535156 277.347656 75.796875 287.527344 C 85.058594 297.707031 96.015625 305.871094 108.371094 311.800781 C 121.160156 317.9375 134.890625 321.390625 149.179688 322.066406 C 163.46875 322.742188 177.464844 320.597656 190.777344 315.695312 C 202.6875 311.308594 213.589844 304.894531 223.222656 296.609375 L 233.320312 307.707031 C 233.882812 308.328125 234.644531 308.660156 235.417969 308.695312 C 236.195312 308.730469 236.984375 308.472656 237.601562 307.910156 C 238.839844 306.78125 238.933594 304.863281 237.804688 303.625 L 227.707031 292.527344 C 236.863281 283.71875 244.277344 273.472656 249.769531 262.027344 C 255.90625 249.234375 259.359375 235.503906 260.035156 221.21875 " fill-opacity="1" fill-rule="nonzero"/></g></g></g><g clip-path="url(#a8da15cb8c)"><g clip-path="url(#e09748477f)"><g clip-path="url(#710f1a73ae)"><path fill="#d9d9d9" d="M 208.996094 153.078125 C 205.636719 152.324219 201.710938 152.261719 197.328125 152.890625 C 189.0625 154.074219 179.070312 157.757812 168.429688 163.539062 C 163.148438 166.410156 157.71875 169.785156 152.296875 173.574219 C 149.457031 175.558594 146.585938 177.675781 143.769531 179.871094 C 139.378906 183.289062 135.007812 186.976562 130.777344 190.824219 C 128.886719 192.542969 127.003906 194.3125 125.1875 196.082031 C 123.988281 197.25 123.960938 199.171875 125.128906 200.371094 C 126.296875 201.570312 128.21875 201.597656 129.417969 200.429688 C 131.1875 198.707031 133.019531 196.984375 134.859375 195.308594 C 138.972656 191.566406 143.226562 187.980469 147.496094 184.65625 C 150.230469 182.523438 153.015625 180.46875 155.769531 178.546875 C 161.003906 174.886719 166.242188 171.632812 171.328125 168.867188 C 181.339844 163.425781 190.628906 159.976562 198.1875 158.894531 C 203.15625 158.179688 209.851562 158.164062 213.535156 162.132812 C 215.410156 164.148438 216.183594 167.277344 215.832031 171.429688 C 215.050781 180.6875 208.652344 194.253906 198.277344 208.648438 C 187.628906 223.429688 174.160156 237.398438 160.359375 247.980469 C 159.027344 249 158.777344 250.902344 159.796875 252.234375 C 160.363281 252.96875 161.199219 253.375 162.0625 253.417969 C 162.75 253.449219 163.457031 253.246094 164.046875 252.792969 C 171.246094 247.273438 178.367188 240.855469 185.21875 233.710938 C 191.824219 226.824219 197.871094 219.585938 203.199219 212.195312 C 214.359375 196.707031 220.992188 182.410156 221.875 171.9375 C 222.375 166.015625 221.066406 161.328125 217.980469 158.003906 C 215.714844 155.566406 212.691406 153.90625 208.996094 153.078125 " fill-opacity="1" fill-rule="nonzero"/></g></g></g><g clip-path="url(#82ab73c3e1)"><g clip-path="url(#158416ce19)"><g clip-path="url(#7a62eeb2b9)"><path fill="#d9d9d9" d="M 136.453125 263.804688 C 126.441406 269.242188 117.164062 272.683594 109.628906 273.757812 C 104.675781 274.464844 98.015625 274.46875 94.390625 270.484375 C 88.488281 263.996094 92.238281 248.671875 104.171875 230.492188 C 105.089844 229.089844 104.699219 227.210938 103.300781 226.292969 C 101.902344 225.375 100.019531 225.765625 99.101562 227.164062 C 92.675781 236.953125 88.332031 246.28125 86.542969 254.132812 C 85.589844 258.316406 85.347656 262.117188 85.816406 265.429688 C 86.335938 269.078125 87.710938 272.152344 89.902344 274.566406 C 92.144531 277.03125 95.152344 278.707031 98.84375 279.550781 C 100.253906 279.871094 101.765625 280.070312 103.367188 280.144531 C 105.570312 280.25 107.949219 280.121094 110.484375 279.761719 C 118.726562 278.585938 128.707031 274.914062 139.347656 269.136719 C 140.820312 268.335938 141.363281 266.496094 140.566406 265.023438 C 139.765625 263.554688 137.925781 263.007812 136.453125 263.804688 " fill-opacity="1" fill-rule="nonzero"/></g></g></g><g clip-path="url(#235c0bea55)"><g clip-path="url(#b48c46c1ce)"><g clip-path="url(#41afc8d99d)"><path fill="#737373" d="M 205.832031 101.128906 C 205.488281 101.15625 205.148438 101.21875 204.816406 101.3125 C 204.484375 101.40625 204.164062 101.535156 203.859375 101.691406 C 203.550781 101.847656 203.261719 102.035156 202.992188 102.25 C 202.722656 102.460938 202.476562 102.699219 202.253906 102.964844 C 202.027344 103.226562 201.832031 103.507812 201.664062 103.808594 C 201.496094 104.113281 201.359375 104.425781 201.253906 104.753906 C 201.148438 105.082031 201.074219 105.417969 201.035156 105.761719 C 200.996094 106.105469 200.992188 106.449219 201.019531 106.792969 C 201.046875 107.136719 201.109375 107.472656 201.203125 107.804688 C 201.296875 108.136719 201.421875 108.457031 201.582031 108.765625 C 201.738281 109.070312 201.921875 109.359375 202.136719 109.628906 C 202.351562 109.898438 202.589844 110.148438 202.851562 110.371094 C 203.117188 110.59375 203.398438 110.789062 203.699219 110.957031 C 204 111.125 204.316406 111.261719 204.644531 111.367188 C 204.972656 111.472656 205.308594 111.546875 205.652344 111.585938 C 205.992188 111.625 206.335938 111.632812 206.679688 111.605469 C 207.839844 111.511719 209.003906 111.476562 210.164062 111.5 C 211.328125 111.523438 212.488281 111.601562 213.644531 111.738281 C 214.800781 111.871094 215.945312 112.0625 217.082031 112.3125 C 218.21875 112.558594 219.339844 112.863281 220.449219 113.222656 C 221.554688 113.578125 222.640625 113.992188 223.707031 114.457031 C 224.773438 114.921875 225.816406 115.4375 226.832031 116.003906 C 227.847656 116.570312 228.835938 117.183594 229.789062 117.847656 C 230.746094 118.511719 231.667969 119.21875 232.554688 119.972656 C 233.441406 120.726562 234.285156 121.523438 235.09375 122.359375 C 235.902344 123.195312 236.667969 124.070312 237.390625 124.980469 C 238.113281 125.894531 238.792969 126.839844 239.421875 127.816406 C 240.050781 128.792969 240.632812 129.800781 241.164062 130.835938 C 241.695312 131.871094 242.175781 132.929688 242.601562 134.011719 C 243.03125 135.09375 243.402344 136.195312 243.722656 137.3125 C 244.042969 138.429688 244.308594 139.5625 244.515625 140.707031 C 244.726562 141.851562 244.878906 143.003906 244.972656 144.164062 C 245 144.507812 245.0625 144.847656 245.15625 145.179688 C 245.253906 145.511719 245.378906 145.832031 245.535156 146.136719 C 245.695312 146.445312 245.878906 146.734375 246.09375 147.007812 C 246.308594 147.277344 246.546875 147.523438 246.8125 147.746094 C 247.074219 147.972656 247.355469 148.167969 247.660156 148.335938 C 247.960938 148.503906 248.277344 148.640625 248.605469 148.746094 C 248.933594 148.851562 249.269531 148.925781 249.613281 148.964844 C 249.957031 149.003906 250.300781 149.011719 250.644531 148.984375 C 250.992188 148.957031 251.328125 148.894531 251.660156 148.800781 C 251.992188 148.703125 252.3125 148.578125 252.621094 148.421875 C 252.929688 148.261719 253.21875 148.078125 253.488281 147.863281 C 253.757812 147.648438 254.007812 147.410156 254.230469 147.144531 C 254.453125 146.882812 254.652344 146.601562 254.820312 146.296875 C 254.988281 145.996094 255.125 145.679688 255.230469 145.351562 C 255.335938 145.023438 255.410156 144.6875 255.449219 144.34375 C 255.488281 144 255.496094 143.65625 255.464844 143.3125 C 255.34375 141.808594 255.144531 140.316406 254.875 138.832031 C 254.601562 137.347656 254.261719 135.882812 253.84375 134.433594 C 253.429688 132.984375 252.945312 131.558594 252.390625 130.15625 C 251.835938 128.753906 251.214844 127.378906 250.527344 126.039062 C 249.839844 124.699219 249.085938 123.394531 248.269531 122.125 C 247.453125 120.859375 246.574219 119.632812 245.636719 118.453125 C 244.699219 117.269531 243.707031 116.136719 242.660156 115.054688 C 241.613281 113.96875 240.515625 112.941406 239.363281 111.964844 C 238.214844 110.988281 237.023438 110.070312 235.78125 109.210938 C 234.542969 108.351562 233.265625 107.554688 231.949219 106.820312 C 230.632812 106.085938 229.28125 105.417969 227.898438 104.816406 C 226.515625 104.214844 225.109375 103.683594 223.671875 103.21875 C 222.238281 102.753906 220.785156 102.363281 219.3125 102.042969 C 217.835938 101.71875 216.351562 101.472656 214.855469 101.296875 C 213.355469 101.121094 211.855469 101.019531 210.347656 100.992188 C 208.839844 100.964844 207.332031 101.011719 205.832031 101.128906 Z M 205.832031 101.128906 " fill-opacity="1" fill-rule="nonzero"/></g></g></g><g clip-path="url(#da2b0628ae)"><g clip-path="url(#c23933d1da)"><g clip-path="url(#7d9f1a6f72)"><path fill="#737373" d="M 203.460938 71.957031 C 203.117188 71.984375 202.78125 72.046875 202.449219 72.140625 C 202.117188 72.234375 201.796875 72.363281 201.492188 72.519531 C 201.183594 72.675781 200.894531 72.863281 200.625 73.078125 C 200.355469 73.292969 200.105469 73.53125 199.882812 73.792969 C 199.660156 74.054688 199.464844 74.335938 199.296875 74.640625 C 199.128906 74.941406 198.992188 75.253906 198.886719 75.582031 C 198.78125 75.914062 198.707031 76.246094 198.667969 76.589844 C 198.628906 76.933594 198.621094 77.277344 198.652344 77.621094 C 198.679688 77.964844 198.738281 78.300781 198.835938 78.632812 C 198.929688 78.964844 199.054688 79.285156 199.210938 79.59375 C 199.371094 79.898438 199.554688 80.1875 199.769531 80.457031 C 199.984375 80.730469 200.222656 80.976562 200.484375 81.199219 C 200.75 81.421875 201.03125 81.617188 201.332031 81.785156 C 201.632812 81.953125 201.949219 82.089844 202.277344 82.195312 C 202.605469 82.300781 202.941406 82.375 203.28125 82.414062 C 203.625 82.453125 203.96875 82.460938 204.3125 82.433594 C 205.371094 82.347656 206.429688 82.289062 207.488281 82.257812 C 208.546875 82.226562 209.605469 82.21875 210.667969 82.238281 C 211.726562 82.257812 212.785156 82.304688 213.84375 82.375 C 214.902344 82.445312 215.957031 82.542969 217.007812 82.667969 C 218.0625 82.789062 219.109375 82.9375 220.15625 83.113281 C 221.203125 83.289062 222.242188 83.488281 223.277344 83.714844 C 224.3125 83.941406 225.34375 84.191406 226.367188 84.46875 C 227.390625 84.742188 228.40625 85.042969 229.414062 85.371094 C 230.425781 85.695312 231.425781 86.046875 232.414062 86.421875 C 233.40625 86.796875 234.386719 87.195312 235.359375 87.621094 C 236.332031 88.042969 237.292969 88.488281 238.242188 88.960938 C 239.195312 89.429688 240.132812 89.921875 241.058594 90.441406 C 241.984375 90.957031 242.894531 91.496094 243.796875 92.054688 C 244.695312 92.617188 245.578125 93.199219 246.449219 93.804688 C 247.320312 94.410156 248.175781 95.035156 249.015625 95.679688 C 249.855469 96.328125 250.679688 96.992188 251.488281 97.679688 C 252.296875 98.367188 253.085938 99.074219 253.859375 99.800781 C 254.632812 100.523438 255.386719 101.269531 256.121094 102.03125 C 256.859375 102.792969 257.574219 103.574219 258.273438 104.371094 C 258.972656 105.167969 259.652344 105.984375 260.308594 106.816406 C 260.96875 107.644531 261.605469 108.492188 262.222656 109.355469 C 262.835938 110.214844 263.433594 111.09375 264.007812 111.984375 C 264.582031 112.875 265.132812 113.78125 265.660156 114.699219 C 266.191406 115.617188 266.695312 116.550781 267.179688 117.492188 C 267.664062 118.4375 268.125 119.390625 268.5625 120.355469 C 268.996094 121.320312 269.410156 122.296875 269.800781 123.285156 C 270.1875 124.269531 270.554688 125.265625 270.894531 126.269531 C 271.234375 127.273438 271.550781 128.285156 271.839844 129.304688 C 272.128906 130.324219 272.394531 131.351562 272.636719 132.382812 C 272.875 133.414062 273.089844 134.453125 273.28125 135.496094 C 273.46875 136.539062 273.632812 137.585938 273.769531 138.636719 C 273.910156 139.6875 274.023438 140.742188 274.109375 141.796875 C 274.136719 142.144531 274.199219 142.484375 274.292969 142.816406 C 274.386719 143.148438 274.515625 143.472656 274.671875 143.78125 C 274.832031 144.089844 275.015625 144.378906 275.234375 144.652344 C 275.449219 144.921875 275.6875 145.171875 275.953125 145.394531 C 276.214844 145.621094 276.5 145.816406 276.804688 145.984375 C 277.105469 146.152344 277.421875 146.292969 277.753906 146.398438 C 278.082031 146.503906 278.421875 146.578125 278.765625 146.617188 C 279.109375 146.65625 279.453125 146.664062 279.800781 146.636719 C 280.144531 146.605469 280.484375 146.546875 280.820312 146.449219 C 281.152344 146.355469 281.472656 146.230469 281.78125 146.070312 C 282.089844 145.914062 282.382812 145.726562 282.652344 145.511719 C 282.925781 145.296875 283.171875 145.054688 283.398438 144.789062 C 283.621094 144.527344 283.820312 144.242188 283.988281 143.941406 C 284.15625 143.636719 284.292969 143.320312 284.398438 142.992188 C 284.507812 142.660156 284.578125 142.324219 284.621094 141.976562 C 284.660156 141.632812 284.664062 141.289062 284.636719 140.941406 C 284.539062 139.714844 284.40625 138.488281 284.25 137.265625 C 284.089844 136.042969 283.898438 134.828125 283.679688 133.613281 C 283.457031 132.398438 283.210938 131.191406 282.929688 129.992188 C 282.652344 128.792969 282.34375 127.597656 282.007812 126.414062 C 281.667969 125.226562 281.300781 124.050781 280.90625 122.882812 C 280.511719 121.714844 280.085938 120.558594 279.636719 119.410156 C 279.183594 118.265625 278.703125 117.128906 278.195312 116.003906 C 277.6875 114.882812 277.152344 113.773438 276.589844 112.675781 C 276.027344 111.578125 275.4375 110.496094 274.824219 109.425781 C 274.207031 108.359375 273.566406 107.308594 272.898438 106.269531 C 272.230469 105.234375 271.539062 104.214844 270.824219 103.210938 C 270.105469 102.207031 269.363281 101.222656 268.597656 100.257812 C 267.832031 99.292969 267.042969 98.34375 266.230469 97.417969 C 265.417969 96.488281 264.585938 95.582031 263.730469 94.695312 C 262.871094 93.808594 261.996094 92.945312 261.09375 92.101562 C 260.195312 91.257812 259.277344 90.4375 258.335938 89.640625 C 257.398438 88.839844 256.441406 88.066406 255.460938 87.3125 C 254.484375 86.5625 253.488281 85.835938 252.476562 85.132812 C 251.464844 84.429688 250.433594 83.753906 249.386719 83.101562 C 248.339844 82.449219 247.277344 81.824219 246.203125 81.226562 C 245.125 80.625 244.035156 80.050781 242.929688 79.507812 C 241.824219 78.960938 240.707031 78.441406 239.574219 77.949219 C 238.445312 77.460938 237.300781 76.996094 236.148438 76.5625 C 234.996094 76.125 233.832031 75.71875 232.660156 75.339844 C 231.484375 74.960938 230.304688 74.613281 229.113281 74.292969 C 227.921875 73.972656 226.722656 73.683594 225.519531 73.421875 C 224.316406 73.160156 223.105469 72.929688 221.886719 72.726562 C 220.671875 72.527344 219.453125 72.355469 218.226562 72.210938 C 217.003906 72.070312 215.773438 71.957031 214.546875 71.875 C 213.316406 71.792969 212.082031 71.742188 210.851562 71.722656 C 209.617188 71.699219 208.386719 71.710938 207.152344 71.75 C 205.921875 71.789062 204.691406 71.859375 203.460938 71.957031 Z M 203.460938 71.957031 " fill-opacity="1" fill-rule="nonzero"/></g></g></g><g clip-path="url(#a4caabe7e1)"><g clip-path="url(#b8fdec0d28)"><g clip-path="url(#c08dc0579f)"><path fill="#737373" d="M 201.105469 42.898438 C 200.757812 42.925781 200.421875 42.984375 200.089844 43.082031 C 199.757812 43.175781 199.4375 43.300781 199.132812 43.457031 C 198.824219 43.617188 198.535156 43.800781 198.265625 44.015625 C 197.996094 44.230469 197.75 44.46875 197.523438 44.730469 C 197.300781 44.996094 197.105469 45.277344 196.9375 45.578125 C 196.769531 45.878906 196.632812 46.195312 196.527344 46.523438 C 196.421875 46.851562 196.347656 47.1875 196.308594 47.527344 C 196.269531 47.871094 196.261719 48.214844 196.292969 48.558594 C 196.320312 48.902344 196.378906 49.242188 196.476562 49.574219 C 196.570312 49.90625 196.695312 50.222656 196.851562 50.53125 C 197.011719 50.839844 197.195312 51.125 197.410156 51.398438 C 197.625 51.667969 197.863281 51.914062 198.125 52.136719 C 198.390625 52.363281 198.671875 52.558594 198.972656 52.726562 C 199.273438 52.894531 199.589844 53.03125 199.917969 53.136719 C 200.246094 53.242188 200.582031 53.3125 200.925781 53.355469 C 201.265625 53.394531 201.609375 53.398438 201.953125 53.371094 C 203.488281 53.25 205.019531 53.164062 206.558594 53.117188 C 208.09375 53.070312 209.632812 53.0625 211.167969 53.089844 C 212.707031 53.117188 214.242188 53.183594 215.773438 53.285156 C 217.308594 53.390625 218.839844 53.53125 220.367188 53.710938 C 221.894531 53.886719 223.414062 54.105469 224.929688 54.355469 C 226.449219 54.609375 227.957031 54.898438 229.460938 55.226562 C 230.960938 55.554688 232.453125 55.917969 233.9375 56.316406 C 235.421875 56.71875 236.898438 57.15625 238.359375 57.628906 C 239.824219 58.101562 241.273438 58.609375 242.710938 59.152344 C 244.148438 59.695312 245.574219 60.273438 246.984375 60.886719 C 248.394531 61.5 249.789062 62.148438 251.164062 62.828125 C 252.542969 63.511719 253.902344 64.226562 255.246094 64.972656 C 256.589844 65.722656 257.914062 66.503906 259.21875 67.316406 C 260.523438 68.128906 261.808594 68.972656 263.070312 69.851562 C 264.332031 70.726562 265.574219 71.632812 266.792969 72.570312 C 268.011719 73.507812 269.207031 74.472656 270.378906 75.46875 C 271.550781 76.464844 272.695312 77.488281 273.816406 78.539062 C 274.941406 79.59375 276.035156 80.671875 277.101562 81.777344 C 278.171875 82.882812 279.210938 84.011719 280.226562 85.167969 C 281.238281 86.324219 282.222656 87.507812 283.175781 88.710938 C 284.132812 89.914062 285.058594 91.144531 285.953125 92.394531 C 286.847656 93.644531 287.710938 94.914062 288.542969 96.207031 C 289.378906 97.5 290.175781 98.808594 290.945312 100.140625 C 291.714844 101.472656 292.449219 102.824219 293.152344 104.191406 C 293.855469 105.558594 294.523438 106.941406 295.15625 108.34375 C 295.792969 109.742188 296.390625 111.160156 296.957031 112.589844 C 297.523438 114.019531 298.050781 115.460938 298.546875 116.917969 C 299.039062 118.371094 299.5 119.839844 299.921875 121.316406 C 300.34375 122.796875 300.730469 124.285156 301.078125 125.78125 C 301.429688 127.277344 301.742188 128.78125 302.015625 130.292969 C 302.292969 131.808594 302.53125 133.324219 302.734375 134.851562 C 302.933594 136.375 303.097656 137.902344 303.222656 139.433594 C 303.253906 139.777344 303.3125 140.117188 303.410156 140.449219 C 303.503906 140.78125 303.628906 141.101562 303.785156 141.410156 C 303.945312 141.71875 304.128906 142.007812 304.34375 142.277344 C 304.558594 142.546875 304.800781 142.796875 305.0625 143.019531 C 305.324219 143.242188 305.609375 143.4375 305.910156 143.605469 C 306.210938 143.773438 306.527344 143.914062 306.855469 144.019531 C 307.1875 144.125 307.523438 144.195312 307.863281 144.238281 C 308.207031 144.277344 308.550781 144.28125 308.898438 144.253906 C 309.242188 144.226562 309.578125 144.164062 309.914062 144.070312 C 310.246094 143.976562 310.566406 143.851562 310.871094 143.691406 C 311.179688 143.535156 311.46875 143.347656 311.738281 143.132812 C 312.011719 142.917969 312.257812 142.679688 312.480469 142.417969 C 312.707031 142.152344 312.902344 141.871094 313.070312 141.570312 C 313.238281 141.265625 313.375 140.953125 313.480469 140.621094 C 313.585938 140.292969 313.660156 139.957031 313.699219 139.613281 C 313.738281 139.269531 313.746094 138.925781 313.71875 138.582031 C 313.574219 136.878906 313.390625 135.179688 313.167969 133.488281 C 312.941406 131.792969 312.675781 130.105469 312.367188 128.421875 C 312.058594 126.742188 311.710938 125.070312 311.320312 123.40625 C 310.929688 121.742188 310.5 120.089844 310.027344 118.445312 C 309.558594 116.800781 309.046875 115.171875 308.496094 113.554688 C 307.945312 111.9375 307.355469 110.332031 306.726562 108.742188 C 306.097656 107.15625 305.429688 105.582031 304.722656 104.023438 C 304.015625 102.46875 303.273438 100.929688 302.492188 99.410156 C 301.710938 97.890625 300.894531 96.390625 300.039062 94.910156 C 299.183594 93.429688 298.292969 91.972656 297.367188 90.535156 C 296.441406 89.101562 295.480469 87.6875 294.484375 86.296875 C 293.488281 84.910156 292.460938 83.542969 291.398438 82.207031 C 290.335938 80.867188 289.242188 79.554688 288.113281 78.269531 C 286.988281 76.984375 285.828125 75.726562 284.640625 74.5 C 283.453125 73.269531 282.238281 72.070312 280.988281 70.902344 C 279.742188 69.734375 278.46875 68.59375 277.167969 67.488281 C 275.863281 66.382812 274.535156 65.308594 273.179688 64.265625 C 271.824219 63.226562 270.445312 62.21875 269.042969 61.242188 C 267.636719 60.269531 266.210938 59.328125 264.757812 58.425781 C 263.308594 57.519531 261.835938 56.652344 260.34375 55.820312 C 258.851562 54.988281 257.339844 54.195312 255.808594 53.4375 C 254.277344 52.679688 252.726562 51.957031 251.160156 51.277344 C 249.59375 50.59375 248.007812 49.949219 246.410156 49.34375 C 244.8125 48.742188 243.199219 48.175781 241.574219 47.648438 C 239.949219 47.125 238.308594 46.636719 236.660156 46.191406 C 235.007812 45.746094 233.347656 45.34375 231.679688 44.976562 C 230.011719 44.613281 228.332031 44.289062 226.648438 44.007812 C 224.960938 43.726562 223.269531 43.484375 221.570312 43.285156 C 219.875 43.085938 218.171875 42.929688 216.46875 42.8125 C 214.761719 42.695312 213.054688 42.621094 211.347656 42.589844 C 209.636719 42.558594 207.929688 42.566406 206.222656 42.617188 C 204.511719 42.667969 202.808594 42.761719 201.105469 42.898438 Z M 201.105469 42.898438 " fill-opacity="1" fill-rule="nonzero"/></g></g></g></svg>